<svg width="180" height="33" viewBox="0 0 180 33" fill="none" xmlns="http://www.w3.org/2000/svg">
<g filter="url(#filter0_i)">
<path d="M17.7762 7.082H6.18215V11.842H15.4302V16.364H6.18215V25H0.33415V2.56H17.7762V7.082ZM22.9545 6.028C21.7758 6.028 20.9145 5.81267 20.3705 5.382C19.8492 4.92867 19.5885 4.226 19.5885 3.274C19.5885 2.29933 19.8492 1.59667 20.3705 1.166C20.9145 0.712666 21.7758 0.485999 22.9545 0.485999C24.1105 0.485999 24.9605 0.712666 25.5045 1.166C26.0485 1.59667 26.3205 2.29933 26.3205 3.274C26.3205 4.226 26.0485 4.92867 25.5045 5.382C24.9605 5.81267 24.1105 6.028 22.9545 6.028ZM25.8445 8V25H20.0645V8H25.8445ZM41.451 8V12.114H36.385V18.948C36.385 19.764 36.5777 20.3533 36.963 20.716C37.371 21.056 37.9264 21.226 38.629 21.226C39.173 21.226 39.6377 21.1693 40.023 21.056C40.4084 20.92 40.771 20.7273 41.111 20.478L41.723 24.048C41.1564 24.4333 40.431 24.7507 39.547 25C38.6857 25.2267 37.813 25.34 36.929 25.34C34.9797 25.34 33.4384 24.932 32.305 24.116C31.1944 23.2773 30.6277 21.872 30.605 19.9V12.114H27.681V8H30.605V4.192L36.385 2.594V8H41.451Z" fill="#94CC39"/>
<path d="M54.1508 2.56C56.8708 2.56 58.9902 3.21733 60.5088 4.532C62.0502 5.824 62.8208 7.66 62.8208 10.04C62.8208 12.42 62.0502 14.2673 60.5088 15.582C58.9902 16.874 56.8708 17.52 54.1508 17.52H49.6968V25H43.8488V2.56H54.1508ZM53.2328 13.134C55.7035 13.134 56.9388 12.1027 56.9388 10.04C56.9388 7.97733 55.7035 6.946 53.2328 6.946H49.6968V13.134H53.2328ZM65.4718 25V8H70.5718L70.8098 11.672C71.2178 10.4253 71.8411 9.45067 72.6798 8.748C73.5411 8.02267 74.6404 7.66 75.9778 7.66C76.4084 7.66 76.7711 7.70533 77.0658 7.796C77.3831 7.864 77.6324 7.94333 77.8138 8.034L77.2358 12.794C77.0091 12.726 76.7144 12.658 76.3518 12.59C76.0118 12.522 75.5924 12.488 75.0938 12.488C74.0511 12.488 73.1444 12.8167 72.3738 13.474C71.6258 14.1313 71.2518 15.1173 71.2518 16.432V25H65.4718ZM78.5171 25V21.464L85.2831 13.78L87.0851 11.978L84.3991 12.046H78.5851V8H93.4771V11.536L86.8131 19.152L84.9431 21.022L87.9351 20.954H93.7831V25H78.5171ZM104.449 25.34C101.615 25.34 99.3715 24.5693 97.7168 23.028C96.0848 21.4867 95.2688 19.3107 95.2688 16.5C95.2688 14.6413 95.6428 13.0547 96.3908 11.74C97.1615 10.4027 98.2041 9.394 99.5188 8.714C100.856 8.01133 102.409 7.66 104.177 7.66C105.967 7.66 107.486 8.01133 108.733 8.714C110.002 9.394 110.965 10.346 111.623 11.57C112.28 12.7713 112.609 14.154 112.609 15.718C112.609 16.1487 112.586 16.568 112.541 16.976C112.518 17.3613 112.495 17.69 112.473 17.962H100.879C101.037 19.1407 101.423 19.9907 102.035 20.512C102.647 21.0107 103.451 21.26 104.449 21.26C105.31 21.26 105.99 21.09 106.489 20.75C107.01 20.41 107.395 19.934 107.645 19.322L112.269 20.852C111.951 21.8267 111.396 22.654 110.603 23.334C109.832 23.9913 108.903 24.49 107.815 24.83C106.749 25.17 105.627 25.34 104.449 25.34ZM104.177 11.706C102.341 11.706 101.253 12.76 100.913 14.868H107.135C106.885 12.76 105.899 11.706 104.177 11.706ZM115.162 32.14V8H120.364L120.534 11.434C121.01 10.3007 121.724 9.394 122.676 8.714C123.651 8.01133 124.796 7.66 126.11 7.66C128.196 7.66 129.873 8.43067 131.142 9.972C132.434 11.5133 133.08 13.6667 133.08 16.432C133.08 19.2427 132.423 21.43 131.108 22.994C129.816 24.558 128.128 25.34 126.042 25.34C124.818 25.34 123.776 25.0453 122.914 24.456C122.053 23.844 121.396 23.0507 120.942 22.076V32.14H115.162ZM124.07 21.09C125.068 21.09 125.85 20.7273 126.416 20.002C126.983 19.254 127.266 18.0867 127.266 16.5C127.266 14.9133 126.983 13.7573 126.416 13.032C125.872 12.284 125.102 11.91 124.104 11.91C123.13 11.91 122.359 12.3067 121.792 13.1C121.226 13.8707 120.942 15.004 120.942 16.5C120.942 17.928 121.214 19.05 121.758 19.866C122.302 20.682 123.073 21.09 124.07 21.09ZM138.689 6.028C137.51 6.028 136.649 5.81267 136.105 5.382C135.583 4.92867 135.323 4.226 135.323 3.274C135.323 2.29933 135.583 1.59667 136.105 1.166C136.649 0.712666 137.51 0.485999 138.689 0.485999C139.845 0.485999 140.695 0.712666 141.239 1.166C141.783 1.59667 142.055 2.29933 142.055 3.274C142.055 4.226 141.783 4.92867 141.239 5.382C140.695 5.81267 139.845 6.028 138.689 6.028ZM141.579 8V25H135.799V8H141.579ZM152.153 25.34C150.453 25.34 148.878 25.068 147.427 24.524C145.977 23.9573 144.764 23.1527 143.789 22.11L146.509 18.914C147.076 19.6393 147.824 20.2513 148.753 20.75C149.705 21.226 150.759 21.464 151.915 21.464C152.618 21.464 153.196 21.362 153.649 21.158C154.103 20.954 154.329 20.6367 154.329 20.206C154.329 19.9113 154.216 19.662 153.989 19.458C153.763 19.254 153.309 19.084 152.629 18.948L150.249 18.472C148.119 18.0413 146.6 17.4067 145.693 16.568C144.809 15.7067 144.367 14.5847 144.367 13.202C144.367 12.2727 144.651 11.3887 145.217 10.55C145.784 9.71133 146.657 9.02 147.835 8.476C149.014 7.932 150.521 7.66 152.357 7.66C155.871 7.66 158.432 8.63467 160.041 10.584L157.287 13.712C156.743 13.032 156.041 12.4993 155.179 12.114C154.318 11.7287 153.457 11.536 152.595 11.536C150.941 11.536 150.113 11.9553 150.113 12.794C150.113 13.0887 150.249 13.3493 150.521 13.576C150.816 13.8027 151.349 13.984 152.119 14.12L155.213 14.732C156.959 15.072 158.217 15.6613 158.987 16.5C159.758 17.316 160.143 18.3133 160.143 19.492C160.143 21.1467 159.475 22.5407 158.137 23.674C156.823 24.7847 154.828 25.34 152.153 25.34ZM179.166 8L172.978 25C172.343 26.7907 171.652 28.2187 170.904 29.284C170.156 30.372 169.272 31.1427 168.252 31.596C167.232 32.072 166.008 32.31 164.58 32.31C163.605 32.31 162.721 32.208 161.928 32.004C161.157 31.8 160.477 31.5167 159.888 31.154L161.044 27.244C161.452 27.5387 161.882 27.7427 162.336 27.856C162.789 27.992 163.367 28.06 164.07 28.06C164.727 28.06 165.26 27.9467 165.668 27.72C166.098 27.516 166.438 27.0853 166.688 26.428L167.13 25.374L165.158 20.75L160.058 8H166.416L169.034 17.69L169.85 21.294L170.802 17.554L173.42 8H179.166Z" fill="#689C13"/>
</g>
<defs>
<filter id="filter0_i" x="0.334137" y="0.485992" width="178.831" height="35.824" filterUnits="userSpaceOnUse" color-interpolation-filters="sRGB">
<feFlood flood-opacity="0" result="BackgroundImageFix"/>
<feBlend mode="normal" in="SourceGraphic" in2="BackgroundImageFix" result="shape"/>
<feColorMatrix in="SourceAlpha" type="matrix" values="0 0 0 0 0 0 0 0 0 0 0 0 0 0 0 0 0 0 127 0" result="hardAlpha"/>
<feOffset dy="4"/>
<feGaussianBlur stdDeviation="2"/>
<feComposite in2="hardAlpha" operator="arithmetic" k2="-1" k3="1"/>
<feColorMatrix type="matrix" values="0 0 0 0 0 0 0 0 0 0 0 0 0 0 0 0 0 0 0.25 0"/>
<feBlend mode="normal" in2="shape" result="effect1_innerShadow"/>
</filter>
</defs>
</svg>
